<svg width="128" height="128" viewBox="0 0 128 128" fill="none" xmlns="http://www.w3.org/2000/svg">
<rect width="128" height="128" fill="white"/>
<path d="M75.3062 80.9329C73.5907 79.2174 73.5907 76.436 75.3062 74.7205C77.0217 73.005 79.8032 73.005 81.5187 74.7205L83.1753 76.3772C84.8908 78.0927 84.8908 80.8741 83.1753 82.5896C81.4598 84.3051 78.6784 84.3051 76.9629 82.5896L75.3062 80.9329Z" fill="black"/>
<path d="M92.7011 98.9135C90.9855 97.198 90.9855 94.4166 92.7011 92.701C94.4166 90.9855 97.198 90.9855 98.9135 92.701L100.57 94.3577C102.286 96.0732 102.286 98.8546 100.57 100.57C98.8546 102.286 96.0732 102.286 94.3577 100.57L92.7011 98.9135Z" fill="black"/>
<path d="M81.5187 99.9844C79.8032 101.7 77.0217 101.7 75.3062 99.9844C73.5907 98.2689 73.5907 95.4875 75.3062 93.772L76.9629 92.1153C78.6784 90.3998 81.4598 90.3998 83.1753 92.1153C84.8908 93.8308 84.8908 96.6123 83.1753 98.3278L81.5187 99.9844Z" fill="black"/>
<path d="M98.9135 82.5896C97.198 84.3051 94.4166 84.3051 92.7011 82.5896C90.9855 80.8741 90.9855 78.0927 92.7011 76.3772L94.3577 74.7205C96.0732 73.005 98.8546 73.005 100.57 74.7205C102.286 76.436 102.286 79.2174 100.57 80.9329L98.9135 82.5896Z" fill="black"/>
<path d="M92.3311 87.3525C92.3311 89.7786 90.3643 91.7453 87.9382 91.7453C85.5121 91.7453 83.5453 89.7786 83.5453 87.3525C83.5453 84.9264 85.5121 82.9596 87.9382 82.9596C90.3643 82.9596 92.3311 84.9264 92.3311 87.3525Z" fill="black"/>
<path fill-rule="evenodd" clip-rule="evenodd" d="M31.6417 31.6417V49.5012H49.5012V31.6417H31.6417ZM29.9133 23C26.0952 23 23 26.0952 23 29.9133V51.2295C23 55.0476 26.0952 58.1429 29.9133 58.1429H51.2295C55.0476 58.1429 58.1429 55.0476 58.1429 51.2295V29.9133C58.1429 26.0952 55.0476 23 51.2295 23H29.9133Z" fill="black"/>
<path d="M45.2571 40.8643C45.2571 43.2904 43.2904 45.2571 40.8643 45.2571C38.4382 45.2571 36.4714 43.2904 36.4714 40.8643C36.4714 38.4382 38.4382 36.4714 40.8643 36.4714C43.2904 36.4714 45.2571 38.4382 45.2571 40.8643Z" fill="black"/>
<path fill-rule="evenodd" clip-rule="evenodd" d="M78.4988 31.6417V49.5012H96.3583V31.6417H78.4988ZM76.7705 23C72.9523 23 69.8571 26.0952 69.8571 29.9133V51.2295C69.8571 55.0476 72.9523 58.1429 76.7705 58.1429H98.0866C101.905 58.1429 105 55.0476 105 51.2295V29.9133C105 26.0952 101.905 23 98.0866 23H76.7705Z" fill="black"/>
<path d="M92.1143 40.8643C92.1143 43.2904 90.1475 45.2571 87.7214 45.2571C85.2953 45.2571 83.3286 43.2904 83.3286 40.8643C83.3286 38.4382 85.2953 36.4714 87.7214 36.4714C90.1475 36.4714 92.1143 38.4382 92.1143 40.8643Z" fill="black"/>
<path fill-rule="evenodd" clip-rule="evenodd" d="M31.6417 78.4988V96.3583H49.5012V78.4988H31.6417ZM29.9133 69.8571C26.0952 69.8571 23 72.9524 23 76.7705V98.0867C23 101.905 26.0952 105 29.9133 105H51.2295C55.0476 105 58.1429 101.905 58.1429 98.0867V76.7705C58.1429 72.9524 55.0476 69.8571 51.2295 69.8571H29.9133Z" fill="black"/>
<path d="M45.2571 87.7214C45.2571 90.1475 43.2904 92.1143 40.8643 92.1143C38.4382 92.1143 36.4714 90.1475 36.4714 87.7214C36.4714 85.2953 38.4382 83.3286 40.8643 83.3286C43.2904 83.3286 45.2571 85.2953 45.2571 87.7214Z" fill="black"/>
</svg>
